<svg width="24" height="22" viewBox="0 0 24 22" fill="none" xmlns="http://www.w3.org/2000/svg">
<path d="M3.30762 8.88416V20.2308C3.30762 20.4348 3.38866 20.6305 3.53293 20.7747C3.67719 20.919 3.87286 21 4.07688 21H8.69246V14.4613C8.69246 14.1553 8.81403 13.8618 9.03043 13.6454C9.24682 13.429 9.54032 13.3074 9.84635 13.3074H13.6927C13.9987 13.3074 14.2922 13.429 14.5086 13.6454C14.725 13.8618 14.8466 14.1553 14.8466 14.4613V21H19.4621C19.6662 21 19.8618 20.919 20.0061 20.7747C20.1504 20.6305 20.2314 20.4348 20.2314 20.2308V8.88416" stroke="#EEF2F3" stroke-linecap="round" stroke-linejoin="round"/>
<path d="M22.5394 10.9996L12.2933 1.19148C12.0529 0.937619 11.4908 0.934734 11.2461 1.19148L1 10.9996M18.6931 7.2975V1.76842H16.3853V5.08587" stroke="#EEF2F3" stroke-linecap="round" stroke-linejoin="round"/>
</svg>
