<svg width="26" height="22" viewBox="0 0 26 22" fill="none" xmlns="http://www.w3.org/2000/svg">
<path d="M23.5452 6.085L13.5368 1.14522C13.3431 1.04969 13.1301 1 12.9141 1C12.6982 1 12.4852 1.04969 12.2915 1.14522L2.28306 6.085C1.89937 6.273 1.57589 6.56454 1.34916 6.9267C1.12244 7.28885 1.0015 7.70719 1 8.13446V18.7088C1 19.9741 2.03905 21 3.32096 21H22.5096C23.7915 21 24.8305 19.9741 24.8305 18.7088V8.13446C24.8288 7.70695 24.7076 7.28844 24.4804 6.92626C24.2533 6.56408 23.9293 6.27268 23.5452 6.085V6.085Z" stroke="#EEF2F3" stroke-linecap="round" stroke-linejoin="round"/>
<path d="M1.76367 7.25293L9.72552 13.2673M21.0096 17.3341L13.6056 11.5752C13.3643 11.3875 13.0673 11.2856 12.7616 11.2856C12.4559 11.2856 12.1589 11.3875 11.9176 11.5752L4.51309 17.3341H21.0096ZM15.969 13.1527L23.759 7.25293L15.969 13.1527Z" stroke="#EEF2F3" stroke-linecap="round" stroke-linejoin="round"/>
</svg>
